<svg width="64" height="64" viewBox="0 0 64 64" fill="none" xmlns="http://www.w3.org/2000/svg">
<path d="M32.0002 5.33337C17.2722 5.33337 5.3335 17.272 5.3335 32C5.3335 46.728 17.2722 58.6667 32.0002 58.6667C46.7282 58.6667 58.6668 46.728 58.6668 32C58.6668 17.272 46.7282 5.33337 32.0002 5.33337Z" stroke="#8B8B8B" stroke-width="3" stroke-linecap="round" stroke-linejoin="round"/>
<path d="M21.3335 56.4481V37.3334L32.0002 18.6667L42.6668 37.3334V56.4481" stroke="#8B8B8B" stroke-width="3" stroke-linecap="round" stroke-linejoin="round"/>
<path d="M21.3335 37.3334C21.3335 37.3334 24.3388 40 26.6668 40C28.9948 40 32.0002 37.3334 32.0002 37.3334C32.0002 37.3334 35.0055 40 37.3335 40C39.6615 40 42.6668 37.3334 42.6668 37.3334" stroke="#8B8B8B" stroke-width="3" stroke-linecap="round" stroke-linejoin="round"/>
</svg>
