<svg width="64" height="64" viewBox="0 0 64 64" fill="none" xmlns="http://www.w3.org/2000/svg">
<path d="M58.6668 24V18.6667C58.6668 17.2522 58.1049 15.8957 57.1047 14.8955C56.1045 13.8953 54.748 13.3334 53.3335 13.3334H10.6668C9.25234 13.3334 7.89579 13.8953 6.89559 14.8955C5.8954 15.8957 5.3335 17.2522 5.3335 18.6667V45.3334C5.3335 46.7479 5.8954 48.1044 6.89559 49.1046C7.89579 50.1048 9.25234 50.6667 10.6668 50.6667H32.0002M58.6668 24H16.0002M58.6668 24V29.3334" stroke="#8B8B8B" stroke-width="3" stroke-linecap="round" stroke-linejoin="round"/>
<path d="M50.6456 37.6667L57.4616 39.3974C58.171 39.5787 58.6696 40.224 58.6483 40.9547C58.1896 56.3094 49.3336 58.6667 49.3336 58.6667C49.3336 58.6667 40.4776 56.3094 40.019 40.9547C40.0107 40.599 40.1237 40.251 40.3394 39.968C40.555 39.685 40.8605 39.4838 41.2056 39.3974L48.0216 37.6667C48.883 37.448 49.7843 37.448 50.6456 37.6667Z" stroke="#8B8B8B" stroke-width="3" stroke-linecap="round" stroke-linejoin="round"/>
</svg>
