<svg width="64" height="64" viewBox="0 0 64 64" fill="none" xmlns="http://www.w3.org/2000/svg">
<path d="M29.3333 56V36.2667C29.3333 35.8423 29.1648 35.4354 28.8647 35.1353C28.5646 34.8352 28.1577 34.6667 27.7333 34.6667H8M29.3333 56H9.6C9.17565 56 8.76869 55.8314 8.46863 55.5314C8.16857 55.2313 8 54.8243 8 54.4V34.6667M29.3333 56H37.3333M8 34.6667V26.6667M16 8H9.6C9.17565 8 8.76869 8.16857 8.46863 8.46863C8.16857 8.76869 8 9.17565 8 9.6V16M37.3333 8H26.6667M56 26.6667V37.3333M48 8H54.4C54.8243 8 55.2313 8.16857 55.5314 8.46863C55.8314 8.76869 56 9.17565 56 9.6V16M48 56H54.4C54.8243 56 55.2313 55.8314 55.5314 55.5314C55.8314 55.2313 56 54.8243 56 54.4V48M29.3333 26.6667H37.3333V34.6667" stroke="#8B8B8B" stroke-width="3" stroke-linecap="round" stroke-linejoin="round"/>
</svg>
